<svg width="31" height="31" viewBox="0 0 31 31" fill="none" xmlns="http://www.w3.org/2000/svg">
<path d="M15.5327 0.000732422C11.3307 0.000732422 10.8061 0.0200671 9.15631 0.0935391C7.50905 0.170878 6.38767 0.429963 5.40163 0.812791C4.38466 1.20722 3.52107 1.73699 2.66135 2.59674C1.80163 3.45649 1.27059 4.31882 0.877461 5.33711C0.494646 6.32318 0.234281 7.4446 0.158233 9.09192C0.0808969 10.7418 0.0654297 11.2664 0.0654297 15.4685C0.0654297 19.6706 0.0847638 20.1952 0.158233 21.8451C0.235569 23.4911 0.494646 24.6138 0.877461 25.5999C1.27188 26.6156 1.80163 27.4805 2.66135 28.3403C3.52107 29.1987 4.38337 29.7311 5.40163 30.1242C6.38896 30.5058 7.51033 30.7674 9.15631 30.8435C10.8061 30.9208 11.3307 30.9363 15.5327 30.9363C19.7346 30.9363 20.2592 30.9169 21.9091 30.8435C23.555 30.7661 24.6777 30.5058 25.6637 30.1242C26.6794 29.7298 27.5443 29.1987 28.404 28.3403C29.2625 27.4805 29.7948 26.6195 30.1879 25.5999C30.5694 24.6138 30.8311 23.4911 30.9071 21.8451C30.9845 20.1952 30.9999 19.6706 30.9999 15.4685C30.9999 11.2664 30.9806 10.7418 30.9071 9.09192C30.8298 7.44589 30.5694 6.3219 30.1879 5.33711C29.7935 4.32011 29.2625 3.45649 28.404 2.59674C27.5443 1.73699 26.6833 1.20593 25.6637 0.812791C24.6777 0.429963 23.555 0.169589 21.9091 0.0935391C20.2592 0.0162002 19.7346 0.000732422 15.5327 0.000732422ZM15.5327 2.78493C19.6612 2.78493 20.1535 2.80556 21.784 2.87645C23.2921 2.94734 24.1106 3.19741 24.6545 3.41138C25.3789 3.69109 25.8919 4.02622 26.4358 4.5663C26.9759 5.10768 27.311 5.62198 27.5907 6.34639C27.8021 6.89034 28.0547 7.70884 28.123 9.21695C28.1965 10.8488 28.2133 11.3386 28.2133 15.4685C28.2133 19.5984 28.1939 20.0895 28.1179 21.7201C28.0392 23.2282 27.7879 24.0467 27.5752 24.5906C27.2865 25.315 26.9578 25.828 26.4165 26.372C25.8764 26.9121 25.3544 27.2472 24.6377 27.5269C24.0964 27.7383 23.265 27.991 21.757 28.0593C20.1149 28.1327 19.6315 28.1495 15.494 28.1495C11.3552 28.1495 10.8719 28.1302 9.23107 28.0541C7.72172 27.9755 6.89036 27.7241 6.349 27.5115C5.6156 27.2227 5.11162 26.894 4.57156 26.3527C4.02891 25.8126 3.68219 25.2905 3.41151 24.5739C3.19884 24.0325 2.94878 23.2011 2.87016 21.693C2.81216 20.0689 2.79153 19.5675 2.79153 15.4492C2.79153 11.3296 2.81216 10.8269 2.87016 9.18343C2.94878 7.67533 3.19884 6.84522 3.41151 6.30385C3.68219 5.56913 4.02891 5.06643 4.57156 4.52377C5.11162 3.98368 5.6156 3.63566 6.349 3.36626C6.89036 3.15229 7.70368 2.90094 9.21173 2.8236C10.8551 2.7656 11.3385 2.74626 15.4747 2.74626L15.5327 2.78493ZM15.5327 7.5258C11.1439 7.5258 7.59025 11.0834 7.59025 15.4685C7.59025 19.8575 11.1477 23.4112 15.5327 23.4112C19.9215 23.4112 23.4751 19.8536 23.4751 15.4685C23.4751 11.0795 19.9177 7.5258 15.5327 7.5258ZM15.5327 20.6244C12.6841 20.6244 10.3769 18.3172 10.3769 15.4685C10.3769 12.6199 12.6841 10.3126 15.5327 10.3126C18.3812 10.3126 20.6884 12.6199 20.6884 15.4685C20.6884 18.3172 18.3812 20.6244 15.5327 20.6244ZM25.6457 7.21258C25.6457 8.23732 24.813 9.06871 23.7896 9.06871C22.7649 9.06871 21.9335 8.23603 21.9335 7.21258C21.9335 6.18913 22.7662 5.35774 23.7896 5.35774C24.8117 5.35645 25.6457 6.18913 25.6457 7.21258Z" fill="#D5A167"/>
</svg>
