<svg width="31" height="23" viewBox="0 0 31 23" fill="none" xmlns="http://www.w3.org/2000/svg">
<path d="M0.467219 11.0584C3.63191 9.56757 7.16456 8.32322 10.4653 7.07253C16.1438 5.024 21.8449 3.01098 27.6035 1.13688C28.724 0.817569 30.7371 0.505341 30.9345 1.92538C30.8264 3.93551 30.3817 5.93387 30.0768 7.93223C29.3027 12.3268 28.4079 16.7063 27.5354 21.0864C27.2348 22.5455 25.0978 23.3007 23.7304 22.367C20.4444 20.4687 17.1331 18.5887 13.8889 16.6463C12.8263 15.7228 13.8117 14.3965 14.7608 13.737C17.4673 11.4558 20.3376 9.51766 22.9026 7.11855C23.5945 5.68956 21.5501 6.89386 20.8758 7.2629C17.1706 9.44668 13.556 11.7638 9.64957 13.683C7.65415 14.6225 5.32846 13.8197 3.33394 13.2955C1.54565 12.6622 -1.07493 12.0242 0.467038 11.0586L0.467219 11.0584Z" fill="#D5A167"/>
</svg>
