<svg width="32" height="23" viewBox="0 0 32 23" fill="none" xmlns="http://www.w3.org/2000/svg">
<path d="M30.9775 3.99431C30.7982 3.35178 30.4562 2.76637 29.9845 2.29468C29.5128 1.82299 28.9274 1.48098 28.2849 1.30172C25.8746 0.655963 16.1689 0.655963 16.1689 0.655963C16.1689 0.655963 6.49024 0.643074 4.05414 1.30172C3.4117 1.48129 2.82645 1.82358 2.35499 2.2955C1.88353 2.76741 1.5418 3.35299 1.36284 3.9956C0.90554 6.46368 0.679855 8.9691 0.688728 11.4792C0.681538 13.9802 0.907217 16.4765 1.36284 18.9357C1.54199 19.5781 1.88381 20.1634 2.35526 20.635C2.82671 21.1067 3.41185 21.4488 4.05414 21.6283C6.46317 22.2753 16.1702 22.2753 16.1702 22.2753C16.1702 22.2753 25.8475 22.2753 28.2849 21.6283C28.9276 21.4489 29.5131 21.1067 29.9848 20.6348C30.4565 20.1628 30.7984 19.5772 30.9775 18.9344C31.4231 16.4747 31.6388 13.9789 31.6219 11.4792C31.6408 8.96916 31.425 6.46288 30.9775 3.99302V3.99431ZM13.0728 16.1103V6.83513L21.1493 11.4805L13.0728 16.1103Z" fill="#D5A167"/>
</svg>
